<svg id="Layer_1" data-name="Layer 1" xmlns="http://www.w3.org/2000/svg" xmlns:xlink="http://www.w3.org/1999/xlink" viewBox="0 0 512 512"><defs><linearGradient id="linear-gradient" x1="256" y1="501.53" x2="256" y2="11.53" gradientUnits="userSpaceOnUse"><stop offset="0" stop-color="#e47525"/><stop offset="1" stop-color="#f3bf17"/></linearGradient><linearGradient id="linear-gradient-2" x1="255.85" y1="456.26" x2="255.85" y2="52.18" xlink:href="#linear-gradient"/></defs><title>sun</title><path d="M482.78,163.57l-51,58.06,69,34.37-69,34.66,51,57.77-78.51,6.22,24.88,74.65-74.65-24.88-6.22,78.51-57.77-51-34.66,69V426.94h33.48l63.1-25.78L401,352.58l25.77-63.1v-67L401,159.72l-48.58-48.88-63.1-25.77H255.85V11l34.66,69,57.77-51,6.22,78.8L429.16,83l-24.88,74.65ZM255.85,501l-34.37-69-58.06,51-5.92-78.51L82.84,429.31l24.88-74.65-78.51-6.22,50.66-57.77L11.15,256l68.73-34.37L29.22,163.57l78.51-5.93L82.84,83l74.66,24.88,5.92-78.8,58.06,51,34.37-69V85.06H222.38l-62.8,25.77-48.88,48.88-25.48,62.8v67l25.48,63.1,48.88,48.58,62.8,25.78h33.48Z" fill-rule="evenodd" fill="url(#linear-gradient)"/><path d="M255.85,458c111.39,0,202-90.65,202-202s-90.65-202-202-202c-111.09,0-202,90.65-202,202S144.76,458,255.85,458Z" fill-rule="evenodd" fill="url(#linear-gradient-2)"/><path d="M255.85,66.4c101.91,0,184.56,82.65,184.56,184.56v5C437.75,156.46,356,76.77,255.85,76.77S74.25,156.46,71.59,256c0-1.78-.3-3.26-.3-5C71.29,149.05,153.94,66.4,255.85,66.4Z" fill="#f9d167" fill-rule="evenodd"/></svg>